HIERARCHY
ROOT Hips
{
	OFFSET 0.000000 0.000000 0.000000
	CHANNELS 6 Xposition Yposition Zposition Zrotation Yrotation Xrotation 
	JOINT LHipJoint
	{
		OFFSET 0.000000 0.000000 0.000000
		CHANNELS 3 Zrotation Yrotation Xrotation
		JOINT LeftUpLeg
		{
			OFFSET 1.363060 -1.794630 0.839290
			CHANNELS 3 Zrotation Yrotation Xrotation
			JOINT LeftLeg
			{
				OFFSET 2.448110 -6.726130 0.000000
				CHANNELS 3 Zrotation Yrotation Xrotation
				JOINT LeftFoot
				{
					OFFSET 2.562200 -7.039590 0.000000
					CHANNELS 3 Zrotation Yrotation Xrotation
					JOINT LeftToeBase
					{
						OFFSET 0.157640 -0.433110 2.322550
						CHANNELS 3 Zrotation Yrotation Xrotation
						End Site
						{
							OFFSET 0.000000 0.000000 0.000000
						}
					}
				}
			}
		}
	}
	JOINT RHipJoint
	{
		OFFSET 0.000000 0.000000 0.000000
		CHANNELS 3 Zrotation Yrotation Xrotation
		JOINT RightUpLeg
		{
			OFFSET -1.305520 -1.794630 0.839290
			CHANNELS 3 Zrotation Yrotation Xrotation
			JOINT RightLeg
			{
				OFFSET -2.542530 -6.985550 0.000000
				CHANNELS 3 Zrotation Yrotation Xrotation
				JOINT RightFoot
				{
					OFFSET -2.568260 -7.056230 0.000000
					CHANNELS 3 Zrotation Yrotation Xrotation
					JOINT RightToeBase
					{
						OFFSET -0.164730 -0.452590 2.363150
						CHANNELS 3 Zrotation Yrotation Xrotation
						End Site
						{
							OFFSET 0.000000 0.000000 0.000000
						}
					}
				}
			}
		}
	}
}
MOTION
Frames: 33
Frame Time: 0.008333
-11.801337 17.976427 -1.091192 -84.757126 85.668725 -57.513758 -12.694296 3.825076 1.566820 -4.310531 13.027104 -13.187373 -1.231434 0.006361 10.098384 0.741853 4.850838 18.138447 1.925100 0.000000 -55.464600 8.905580 -2.179792 2.739597 11.827662 -1.098187 -43.139999 1.806874 -2.637360 39.151991 -1.152740 -4.612183 -2.687056 -0.915400 -0.000000 -57.374200
-11.526298 18.037547 -1.085377 -90.991993 85.745767 -63.547412 -12.839398 3.858887 1.554548 -3.870947 13.111030 -12.869114 -1.080013 0.040714 10.464572 0.878330 5.839519 19.206974 2.379400 0.000000 -53.278300 8.626856 -2.330680 3.072472 12.416463 -0.531575 -43.487223 2.215624 -2.371466 35.382690 -0.919517 -3.564985 -1.900769 -0.905900 0.000000 -58.305600
-11.252244 18.085044 -1.077231 -96.893698 85.828958 -69.251309 -12.961136 3.882497 1.548880 -3.508043 13.007692 -12.544362 -0.920817 0.068704 11.101445 1.035065 7.127742 19.727658 2.952400 -0.000000 -51.015300 8.365392 -2.456696 3.420499 12.849653 0.075861 -43.760842 2.627465 -2.064820 31.582487 -0.648904 -2.416146 -1.009806 -0.855700 0.000000 -59.522600
-10.979430 18.118812 -1.066543 -102.443398 85.928499 -74.623629 -13.056866 3.900128 1.545354 -3.224472 12.742584 -12.195916 -0.759787 0.094060 12.000709 1.205331 8.610397 19.758133 3.584600 -0.000000 -48.853500 8.131120 -2.548377 3.768610 13.128533 0.682709 -43.964892 3.030319 -1.723076 27.820991 -0.350303 -1.201547 -0.021056 -0.759100 0.000000 -60.927400
-10.708149 18.138941 -1.053195 -107.732942 86.051697 -79.776114 -13.126796 3.915981 1.538217 -3.017473 12.360859 -11.822099 -0.604952 0.121890 13.167791 1.381071 10.155231 19.361238 4.196600 0.000000 -46.877000 7.930645 -2.600511 4.098440 13.273389 1.240565 -44.101702 3.411072 -1.357419 24.176432 -0.037152 0.035169 1.053235 -0.615101 -0.000000 -62.409100
-10.438658 18.145850 -1.037061 -112.901123 86.211644 -84.871725 -13.168314 3.938024 1.528308 -2.895599 11.864774 -11.390472 -0.459961 0.156844 14.561950 1.558889 11.687879 18.646181 4.742900 0.000000 -45.213000 7.771596 -2.607626 4.381893 13.310115 1.683334 -44.170401 3.756762 -0.986055 20.746661 0.277458 1.265678 2.182669 -0.422600 0.000000 -63.824000
-10.171137 18.139997 -1.018178 -118.177775 86.411885 -90.161398 -13.181551 3.973105 1.514729 -2.860405 11.276449 -10.890055 -0.329201 0.204397 16.160079 1.733622 13.131288 17.715740 5.185400 0.000000 -44.016000 7.657013 -2.570082 4.594810 13.281795 1.959804 -44.172402 4.057208 -0.630288 17.631705 0.579293 2.458809 3.326060 -0.186800 -0.000000 -65.015700
-9.905672 18.121772 -0.996945 -123.776708 86.633969 -95.868893 -13.172840 4.023721 1.491996 -2.889826 10.652967 -10.344558 -0.218894 0.270625 17.970926 1.895389 14.385241 16.632466 5.480200 -0.000001 -43.124300 7.581320 -2.497023 4.728024 13.244470 2.066489 -44.105668 4.306181 -0.307849 14.903098 0.851072 3.553080 4.447447 0.073199 -0.000000 -65.940700
-9.642259 18.091552 -0.973743 -129.842922 86.862609 -102.144270 -13.143424 4.093294 1.459192 -2.972701 10.010021 -9.754539 -0.130377 0.359687 19.964743 2.039388 15.418557 15.477079 5.628600 -0.000000 -42.452400 7.541885 -2.395724 4.775692 13.233365 2.012856 -43.968710 4.499331 -0.034068 12.625598 1.078734 4.492584 5.492192 0.332700 0.000001 -66.523400
-9.380812 18.049619 -0.948894 -136.441273 87.081021 -109.047897 -13.091677 4.183532 1.417381 -3.101819 9.348306 -9.121259 -0.061626 0.473797 22.100270 2.164632 16.241342 14.340612 5.661600 -0.000000 -42.073800 7.537719 -2.273412 4.741280 13.263303 1.831175 -43.766949 4.633422 0.180273 10.850323 1.250598 5.218464 6.391394 0.559900 -0.000001 -66.678400
-9.121055 17.996032 -0.923034 -143.392439 87.261225 -116.384708 -13.019054 4.290392 1.364108 -3.253166 8.691748 -8.470496 -0.010457 0.613438 24.359242 2.268568 16.852402 13.273840 5.601500 -0.000000 -41.883300 7.563995 -2.141638 4.644904 13.334902 1.596447 -43.505070 4.705729 0.332455 9.590496 1.354132 5.644940 7.083137 0.711099 0.000000 -66.365200
-8.862693 17.930717 -0.896480 -150.471346 87.388937 -123.914555 -12.921337 4.409927 1.301161 -3.422532 8.036837 -7.810115 0.029083 0.775876 26.704878 2.353807 17.294698 12.334723 5.492100 0.000000 -41.901900 7.621316 -2.007571 4.502629 13.429461 1.358820 -43.204420 4.714220 0.418320 8.884946 1.383845 5.733287 7.473289 0.755799 -0.000000 -65.464400
-8.605371 17.853497 -0.869877 -157.174115 87.444792 -131.109952 -12.804812 4.531638 1.226748 -3.584381 7.410972 -7.174395 0.063756 0.956122 29.129122 2.420719 17.586072 11.538461 5.354400 -0.000000 -41.979600 7.698989 -1.883802 4.344128 13.524911 1.202787 -42.884590 4.657586 0.441170 8.733376 1.331925 5.429501 7.492365 0.666100 -0.000000 -63.958200
-8.348666 17.764240 -0.843723 -163.042479 87.426083 -137.491154 -12.681069 4.645993 1.141938 -3.720341 6.834618 -6.591374 0.101904 1.147472 31.619601 2.472515 17.761344 10.898454 5.212200 0.000000 -42.099100 7.780954 -1.779302 4.193019 13.599092 1.191407 -42.576340 4.536717 0.403897 9.155601 1.194709 4.731246 7.059805 0.442000 0.000000 -61.788800
-8.092269 17.662886 -0.818425 -167.751741 87.345445 -142.715356 -12.566915 4.746982 1.048772 -3.814099 6.333769 -6.088577 0.149687 1.343962 34.168894 2.513047 17.853954 10.412307 5.080800 -0.000000 -42.213101 7.847116 -1.697704 4.066589 13.638342 1.372246 -42.316726 4.354678 0.309778 10.182710 0.970890 3.679199 6.104808 0.114700 0.000000 -58.936700
-7.836033 17.549784 -0.794341 -171.177289 87.223225 -146.651068 -12.477589 4.833910 0.951097 -3.850605 5.924764 -5.675834 0.210678 1.541707 36.762683 2.547414 17.901951 10.077829 4.974199 0.000000 -42.368200 7.881380 -1.634554 3.966961 13.648541 1.752258 -42.131682 4.118904 0.162329 11.843880 0.664042 2.365445 4.578780 -0.251000 0.000001 -55.432601
-7.579796 17.424899 -0.770864 -173.365724 87.095558 -149.317454 -12.421776 4.907702 0.848783 -3.822470 5.661453 -5.410284 0.282924 1.737755 39.423611 2.576160 17.911395 9.848158 4.882600 0.000000 -42.388800 7.877606 -1.582278 3.913754 13.612800 2.386209 -42.103994 3.829170 -0.040336 14.213546 0.272728 0.863397 2.445301 -0.581499 0.000000 -51.268700
-7.323822 17.289586 -0.748143 -174.516069 86.969847 -150.932465 -12.399245 4.971955 0.746088 -3.723029 5.524690 -5.256519 0.368020 1.931236 42.120539 2.605672 17.927776 9.730441 4.822799 -0.000000 -42.500300 7.842126 -1.526159 3.880256 13.564955 3.189809 -42.210867 3.501152 -0.292920 17.263530 -0.185865 -0.685875 -0.253508 -0.783599 0.000000 -46.622300
-7.068320 17.145040 -0.725352 -174.871072 86.858821 -151.732925 -12.405120 5.027483 0.641655 -3.555083 5.526647 -5.228795 0.464113 2.121289 44.859833 2.636842 17.959928 9.684408 4.786800 0.000000 -42.614800 7.790040 -1.455832 3.863701 13.503757 4.136071 -42.465795 3.143662 -0.589999 20.955650 -0.696680 -2.210586 -3.434004 -0.796899 -0.000000 -41.669000
-6.813796 16.993367 -0.701989 -174.647072 86.765396 -151.938277 -12.433558 5.073732 0.532983 -3.323892 5.657118 -5.320981 0.570166 2.308227 47.634504 2.671253 18.021114 9.682504 4.772000 -0.000000 -42.741400 7.739526 -1.365616 3.853752 13.438913 5.166665 -42.830198 2.772177 -0.917766 25.157208 -1.235064 -3.661763 -6.946938 -0.593400 -0.000000 -36.701900
-6.560767 16.837422 -0.677685 -173.986747 86.690064 -151.692087 -12.480932 5.108725 0.416178 -3.034636 5.896966 -5.526943 0.684946 2.493429 50.433277 2.710018 18.120894 9.701602 4.775800 -0.000001 -42.922500 7.705173 -1.257715 3.841700 13.387344 6.220408 -43.237519 2.405817 -1.256629 29.664013 -1.771946 -5.018341 -10.608534 -0.182200 0.000000 -32.074200
-6.309826 16.680880 -0.652588 -172.940792 86.630956 -151.044437 -12.546931 5.129911 0.287748 -2.691092 6.221043 -5.844288 0.806870 2.679177 53.241677 2.753277 18.262458 9.712299 4.791900 -0.000000 -43.127300 7.692864 -1.142023 3.820238 13.377081 7.237317 -43.607447 2.064607 -1.586271 34.237143 -2.279245 -6.269738 -14.238949 0.399000 0.000000 -28.111800
-6.061485 16.527876 -0.627130 -171.524721 86.582068 -150.009323 -12.632308 5.134582 0.146939 -2.298929 6.597327 -6.273821 0.934643 2.867472 56.040455 2.800567 18.445937 9.682930 4.812400 -0.000001 -43.284500 7.700190 -1.032556 3.782155 13.441106 8.159028 -43.862628 1.765482 -1.890796 38.646350 -2.735571 -7.402418 -17.695330 1.097600 -0.000000 -25.027101
-5.816215 16.382768 -0.601916 -169.779613 86.530950 -148.628403 -12.735900 5.119497 -0.003632 -1.869406 6.988641 -6.816518 1.067843 3.058753 58.805525 2.851309 18.671628 9.585350 4.830200 -0.000000 -43.363600 7.720109 -0.943310 3.720403 13.606491 8.932746 -43.941136 1.519457 -2.161150 42.701153 -3.129023 -8.398001 -20.882086 1.856800 -0.000000 -22.896600
-5.574211 16.249695 -0.577424 -167.827247 86.458679 -147.025664 -12.852422 5.081577 -0.156814 -1.421035 7.353207 -7.473636 1.206618 3.251053 61.508992 2.904667 18.939035 9.390110 4.836900 0.000000 -43.311799 7.745714 -0.885619 3.630162 13.885446 9.514523 -43.798941 1.331453 -2.393596 46.258282 -3.456638 -9.239724 -23.743127 2.622200 0.000000 -21.693700
-5.335544 16.132233 -0.553978 -165.869420 86.343804 -145.409217 -12.972121 5.018710 -0.302751 -0.978764 7.650310 -8.242746 1.350983 3.440333 64.119420 2.959605 19.245822 9.070222 4.823300 -0.000000 -43.106000 7.773315 -0.866569 3.509296 14.273241 9.871703 -43.408207 1.202003 -2.587524 49.220037 -3.721206 -9.916894 -26.249596 3.347100 -0.000000 -21.326000
-5.099958 16.033232 -0.531563 -164.169887 86.170057 -144.047965 -13.083310 4.931827 -0.429855 -0.574056 7.841662 -9.121464 1.499547 3.621974 66.605128 3.014621 19.585758 8.594625 4.776800 -0.000001 -42.649800 7.802672 -0.887747 3.358529 14.748293 9.984941 -42.756378 1.128766 -2.742343 51.526178 -3.928434 -10.427168 -28.390511 3.994900 0.000000 -21.655900
-4.867030 15.954599 -0.509890 -162.980223 85.933030 -143.194848 -13.176004 4.823689 -0.529533 -0.241159 7.896269 -10.103438 1.648955 3.791705 68.928973 3.068726 19.952609 7.950914 4.688700 -0.000000 -41.992900 7.834628 -0.944880 3.177758 15.276400 9.850057 -41.841805 1.107685 -2.856300 53.149063 -4.085062 -10.776345 -30.170020 4.541400 -0.000000 -22.499000
-4.636029 15.897289 -0.488429 -162.504129 85.638807 -143.045828 -13.244044 4.698543 -0.597449 -0.015070 7.791682 -11.184614 1.794093 3.946760 71.057883 3.120122 20.332650 7.118875 4.544800 0.000000 -41.052200 7.869462 -1.028869 2.966238 15.814118 9.478042 -40.676189 1.133095 -2.926358 54.089681 -4.198346 -10.978941 -31.603949 4.975400 0.000000 -23.628801
-4.406028 15.861312 -0.466502 -162.847073 85.296255 -143.693677 -13.284051 4.559622 -0.632169 0.074885 7.514034 -12.359473 1.929337 4.083997 72.959873 3.167542 20.711330 6.097554 4.336000 0.000000 -39.835400 7.906851 -1.128781 2.724739 16.316611 8.894950 -39.281140 1.198274 -2.950166 54.374026 -4.275750 -11.057241 -32.717690 5.297500 0.000001 -24.801200
-4.175984 15.845919 -0.443412 -164.014400 84.911941 -145.130257 -13.293811 4.409119 -0.632311 0.009849 7.058796 -13.621253 2.049078 4.199250 74.607544 3.210089 21.073126 4.900997 4.057699 0.000000 -38.407100 7.947064 -1.234347 2.459213 16.743111 8.140098 -37.686261 1.295278 -2.927261 54.048697 -4.324639 -11.040504 -33.539874 5.517200 0.000000 -25.797100
-3.944702 15.849759 -0.418569 -165.929533 84.489870 -147.264722 -13.272397 4.248857 -0.595657 -0.218823 6.430852 -14.965027 2.147696 4.288168 75.980381 3.246746 21.399904 3.547734 3.707600 -0.000000 -36.773599 7.990922 -1.336746 2.181303 17.060753 7.263997 -35.929696 1.414519 -2.859050 53.178480 -4.351620 -10.961667 -34.095965 5.648999 -0.000000 -26.473800
-3.710982 15.871098 -0.391582 -168.450056 84.034510 -149.940472 -13.220585 4.080438 -0.519753 -0.608819 5.644722 -16.387045 2.219837 4.347178 77.063251 3.277060 21.676106 2.070167 3.290800 0.000000 -34.987299 8.039031 -1.428940 1.906523 17.248592 6.325213 -34.055094 1.544985 -2.748233 51.840816 -4.362037 -10.853865 -34.403743 5.708000 0.000000 -26.790500
